<mxfile host="app.diagrams.net" modified="2020-10-07T16:28:26.304Z" agent="5.0 (X11; Linux x86_64) AppleWebKit/537.36 (KHTML, like Gecko) Chrome/83.0.4103.106 Safari/537.36" etag="AZSQPOfUFwbHzxCt07dI" version="13.7.8" type="github">
  <diagram id="lURr1SUzgLX1jMfKgT8y" name="Page-1">
    <mxGraphModel dx="868" dy="472" grid="1" gridSize="10" guides="1" tooltips="1" connect="1" arrows="1" fold="1" page="1" pageScale="1" pageWidth="1654" pageHeight="1169" math="0" shadow="0">
      <root>
        <mxCell id="0" />
        <mxCell id="1" parent="0" />
        <mxCell id="yS4Auysj0yb1mgpmarGh-30" value="" style="fontSize=12;html=1;endArrow=ERzeroToMany;startArrow=ERmandOne;strokeWidth=2;entryX=0.5;entryY=0;entryDx=0;entryDy=0;exitX=0.5;exitY=1;exitDx=0;exitDy=0;" parent="1" source="yS4Auysj0yb1mgpmarGh-12" target="yS4Auysj0yb1mgpmarGh-13" edge="1">
          <mxGeometry width="100" height="100" relative="1" as="geometry">
            <mxPoint x="680" y="610" as="sourcePoint" />
            <mxPoint x="780" y="510" as="targetPoint" />
          </mxGeometry>
        </mxCell>
        <mxCell id="yS4Auysj0yb1mgpmarGh-11" value="Empleado" style="swimlane;childLayout=stackLayout;horizontal=1;startSize=30;horizontalStack=0;rounded=1;fontSize=14;fontStyle=0;strokeWidth=2;resizeParent=0;resizeLast=1;shadow=0;dashed=0;align=center;" parent="1" vertex="1">
          <mxGeometry x="750" y="340" width="160" height="120" as="geometry" />
        </mxCell>
        <mxCell id="yS4Auysj0yb1mgpmarGh-12" value="+id_empleado&#xa;+id_sucursal (FK)&#xa;+nombre_em&#xa;+edad&#xa;+telefono_em&#xa;+direccion_em" style="align=left;strokeColor=none;fillColor=none;spacingLeft=4;fontSize=12;verticalAlign=top;resizable=0;rotatable=0;part=1;" parent="yS4Auysj0yb1mgpmarGh-11" vertex="1">
          <mxGeometry y="30" width="160" height="90" as="geometry" />
        </mxCell>
        <mxCell id="yS4Auysj0yb1mgpmarGh-38" value="" style="endArrow=none;html=1;strokeWidth=2;exitX=0;exitY=0.25;exitDx=0;exitDy=0;entryX=1;entryY=0.25;entryDx=0;entryDy=0;" parent="yS4Auysj0yb1mgpmarGh-11" source="yS4Auysj0yb1mgpmarGh-12" target="yS4Auysj0yb1mgpmarGh-12" edge="1">
          <mxGeometry width="50" height="50" relative="1" as="geometry">
            <mxPoint x="210" y="40" as="sourcePoint" />
            <mxPoint x="260" y="-10" as="targetPoint" />
          </mxGeometry>
        </mxCell>
        <mxCell id="yS4Auysj0yb1mgpmarGh-40" value="&lt;h1&gt;DIAGRAMA ENTIDAD RELACIÓN&lt;/h1&gt;&lt;div&gt;&lt;b&gt;EQUIPO 7&lt;/b&gt;&lt;/div&gt;&lt;div&gt;&lt;b&gt;&lt;br&gt;&lt;/b&gt;&lt;/div&gt;" style="text;html=1;strokeColor=none;fillColor=none;spacing=5;spacingTop=-20;whiteSpace=wrap;overflow=hidden;rounded=0;align=center;" parent="1" vertex="1">
          <mxGeometry x="620" y="90" width="450" height="120" as="geometry" />
        </mxCell>
        <mxCell id="yS4Auysj0yb1mgpmarGh-1" value="Sucursal" style="swimlane;childLayout=stackLayout;horizontal=1;startSize=30;horizontalStack=0;rounded=1;fontSize=14;fontStyle=0;strokeWidth=2;resizeParent=0;resizeLast=1;shadow=0;dashed=0;align=center;" parent="1" vertex="1">
          <mxGeometry x="400" y="340" width="160" height="120" as="geometry" />
        </mxCell>
        <mxCell id="yS4Auysj0yb1mgpmarGh-2" value="+id_sucursal&#xa;+nombre_su&#xa;+direccion_su&#xa;+telefono_su" style="align=left;strokeColor=none;fillColor=none;spacingLeft=4;fontSize=12;verticalAlign=top;resizable=0;rotatable=0;part=1;" parent="yS4Auysj0yb1mgpmarGh-1" vertex="1">
          <mxGeometry y="30" width="160" height="90" as="geometry" />
        </mxCell>
        <mxCell id="yS4Auysj0yb1mgpmarGh-33" value="" style="endArrow=none;html=1;strokeWidth=2;exitX=0;exitY=0.25;exitDx=0;exitDy=0;entryX=1;entryY=0.25;entryDx=0;entryDy=0;" parent="yS4Auysj0yb1mgpmarGh-1" source="yS4Auysj0yb1mgpmarGh-2" target="yS4Auysj0yb1mgpmarGh-2" edge="1">
          <mxGeometry width="50" height="50" relative="1" as="geometry">
            <mxPoint x="170" y="220" as="sourcePoint" />
            <mxPoint x="310" y="220" as="targetPoint" />
          </mxGeometry>
        </mxCell>
        <mxCell id="_uHusO7HqeZdsBcVtX60-1" value="" style="edgeStyle=entityRelationEdgeStyle;fontSize=12;html=1;endArrow=ERoneToMany;exitX=1;exitY=0.5;exitDx=0;exitDy=0;entryX=0;entryY=0.5;entryDx=0;entryDy=0;strokeWidth=2;" parent="1" source="yS4Auysj0yb1mgpmarGh-2" target="yS4Auysj0yb1mgpmarGh-12" edge="1">
          <mxGeometry width="100" height="100" relative="1" as="geometry">
            <mxPoint x="610" y="470" as="sourcePoint" />
            <mxPoint x="710" y="370" as="targetPoint" />
          </mxGeometry>
        </mxCell>
        <mxCell id="yS4Auysj0yb1mgpmarGh-15" value="Venta" style="swimlane;childLayout=stackLayout;horizontal=1;startSize=30;horizontalStack=0;rounded=1;fontSize=14;fontStyle=0;strokeWidth=2;resizeParent=0;resizeLast=1;shadow=0;dashed=0;align=center;" parent="1" vertex="1">
          <mxGeometry x="1101" y="340" width="160" height="120" as="geometry" />
        </mxCell>
        <mxCell id="yS4Auysj0yb1mgpmarGh-39" value="" style="endArrow=none;html=1;strokeWidth=2;exitX=0;exitY=0.25;exitDx=0;exitDy=0;entryX=1;entryY=0.25;entryDx=0;entryDy=0;" parent="yS4Auysj0yb1mgpmarGh-15" source="yS4Auysj0yb1mgpmarGh-16" target="yS4Auysj0yb1mgpmarGh-16" edge="1">
          <mxGeometry width="50" height="50" relative="1" as="geometry">
            <mxPoint x="230" y="90" as="sourcePoint" />
            <mxPoint x="280" y="40" as="targetPoint" />
          </mxGeometry>
        </mxCell>
        <mxCell id="yS4Auysj0yb1mgpmarGh-16" value="+id_venta&#xa;+id_empleado (FK)&#xa;+cantidad_ve&#xa;+fecha_ve&#xa;+hora_ve" style="align=left;strokeColor=none;fillColor=none;spacingLeft=4;fontSize=12;verticalAlign=top;resizable=0;rotatable=0;part=1;" parent="yS4Auysj0yb1mgpmarGh-15" vertex="1">
          <mxGeometry y="30" width="160" height="90" as="geometry" />
        </mxCell>
        <mxCell id="_uHusO7HqeZdsBcVtX60-2" value="" style="edgeStyle=entityRelationEdgeStyle;fontSize=12;html=1;endArrow=ERoneToMany;strokeWidth=2;exitX=1;exitY=0.5;exitDx=0;exitDy=0;entryX=0;entryY=0.5;entryDx=0;entryDy=0;" parent="1" source="yS4Auysj0yb1mgpmarGh-12" target="yS4Auysj0yb1mgpmarGh-16" edge="1">
          <mxGeometry width="100" height="100" relative="1" as="geometry">
            <mxPoint x="960" y="470" as="sourcePoint" />
            <mxPoint x="1060" y="370" as="targetPoint" />
          </mxGeometry>
        </mxCell>
        <mxCell id="yS4Auysj0yb1mgpmarGh-13" value="Compra" style="swimlane;childLayout=stackLayout;horizontal=1;startSize=30;horizontalStack=0;rounded=1;fontSize=14;fontStyle=0;strokeWidth=2;resizeParent=0;resizeLast=1;shadow=0;dashed=0;align=center;" parent="1" vertex="1">
          <mxGeometry x="750" y="770" width="160" height="120" as="geometry" />
        </mxCell>
        <mxCell id="yS4Auysj0yb1mgpmarGh-14" value="+id_compra&#xa;+id_proveedor (FK)&#xa;+cantidad_co&#xa;+fecha_co&#xa;+hora_co" style="align=left;strokeColor=none;fillColor=none;spacingLeft=4;fontSize=12;verticalAlign=top;resizable=0;rotatable=0;part=1;" parent="yS4Auysj0yb1mgpmarGh-13" vertex="1">
          <mxGeometry y="30" width="160" height="90" as="geometry" />
        </mxCell>
        <mxCell id="yS4Auysj0yb1mgpmarGh-36" style="edgeStyle=none;rounded=1;orthogonalLoop=1;jettySize=auto;html=1;entryX=0;entryY=0.5;entryDx=0;entryDy=0;strokeWidth=2;" parent="yS4Auysj0yb1mgpmarGh-13" source="yS4Auysj0yb1mgpmarGh-14" target="yS4Auysj0yb1mgpmarGh-14" edge="1">
          <mxGeometry relative="1" as="geometry" />
        </mxCell>
        <mxCell id="yS4Auysj0yb1mgpmarGh-35" value="" style="endArrow=none;html=1;strokeWidth=2;exitX=0;exitY=0.25;exitDx=0;exitDy=0;entryX=1;entryY=0.25;entryDx=0;entryDy=0;" parent="yS4Auysj0yb1mgpmarGh-13" source="yS4Auysj0yb1mgpmarGh-14" target="yS4Auysj0yb1mgpmarGh-14" edge="1">
          <mxGeometry width="50" height="50" relative="1" as="geometry">
            <mxPoint x="200" y="-10" as="sourcePoint" />
            <mxPoint x="250" y="-60" as="targetPoint" />
          </mxGeometry>
        </mxCell>
        <mxCell id="_uHusO7HqeZdsBcVtX60-3" value="Venta_producto" style="swimlane;childLayout=stackLayout;horizontal=1;startSize=30;horizontalStack=0;rounded=1;fontSize=14;fontStyle=0;strokeWidth=2;resizeParent=0;resizeLast=1;shadow=0;dashed=0;align=center;" parent="1" vertex="1">
          <mxGeometry x="1101" y="550" width="160" height="120" as="geometry" />
        </mxCell>
        <mxCell id="_uHusO7HqeZdsBcVtX60-4" value="+id_venta_producto&#xa;+id_venta  (FK)&#xa;+id_producto (FK)" style="align=left;strokeColor=none;fillColor=none;spacingLeft=4;fontSize=12;verticalAlign=top;resizable=0;rotatable=0;part=1;" parent="_uHusO7HqeZdsBcVtX60-3" vertex="1">
          <mxGeometry y="30" width="160" height="90" as="geometry" />
        </mxCell>
        <mxCell id="yS4Auysj0yb1mgpmarGh-18" value="Producto" style="swimlane;childLayout=stackLayout;horizontal=1;startSize=30;horizontalStack=0;rounded=1;fontSize=14;fontStyle=0;strokeWidth=2;resizeParent=0;resizeLast=1;shadow=0;dashed=0;align=center;" parent="1" vertex="1">
          <mxGeometry x="1101" y="770" width="160" height="120" as="geometry" />
        </mxCell>
        <mxCell id="yS4Auysj0yb1mgpmarGh-19" value="+id_producto&#xa;+nombre_pr&#xa;+precio_ven&#xa;+precio_com&#xa;+tamaño_pr&#xa;+existencia_pr" style="align=left;strokeColor=none;fillColor=none;spacingLeft=4;fontSize=12;verticalAlign=top;resizable=0;rotatable=0;part=1;" parent="yS4Auysj0yb1mgpmarGh-18" vertex="1">
          <mxGeometry y="30" width="160" height="90" as="geometry" />
        </mxCell>
        <mxCell id="yS4Auysj0yb1mgpmarGh-34" value="" style="endArrow=none;html=1;strokeWidth=2;exitX=0;exitY=0.25;exitDx=0;exitDy=0;entryX=1;entryY=0.25;entryDx=0;entryDy=0;" parent="yS4Auysj0yb1mgpmarGh-18" source="yS4Auysj0yb1mgpmarGh-19" target="yS4Auysj0yb1mgpmarGh-19" edge="1">
          <mxGeometry width="50" height="50" relative="1" as="geometry">
            <mxPoint x="-190" y="62.5" as="sourcePoint" />
            <mxPoint x="-30" y="62.5" as="targetPoint" />
          </mxGeometry>
        </mxCell>
        <mxCell id="Gwi3XxGi01VuNW4erpNH-7" value="" style="endArrow=none;html=1;rounded=0;strokeWidth=2;exitX=1;exitY=0.5;exitDx=0;exitDy=0;edgeStyle=orthogonalEdgeStyle;" edge="1" parent="yS4Auysj0yb1mgpmarGh-18" source="_uHusO7HqeZdsBcVtX60-7">
          <mxGeometry relative="1" as="geometry">
            <mxPoint x="-1" y="290" as="sourcePoint" />
            <mxPoint x="99" y="120" as="targetPoint" />
          </mxGeometry>
        </mxCell>
        <mxCell id="_uHusO7HqeZdsBcVtX60-6" value="Compra_Producto" style="swimlane;childLayout=stackLayout;horizontal=1;startSize=30;horizontalStack=0;rounded=1;fontSize=14;fontStyle=0;strokeWidth=2;resizeParent=0;resizeLast=1;shadow=0;dashed=0;align=center;" parent="1" vertex="1">
          <mxGeometry x="930" y="980" width="160" height="120" as="geometry" />
        </mxCell>
        <mxCell id="_uHusO7HqeZdsBcVtX60-7" value="+id_compra (FK)&#xa;+id_producto(FK)" style="align=left;strokeColor=none;fillColor=none;spacingLeft=4;fontSize=12;verticalAlign=top;resizable=0;rotatable=0;part=1;" parent="_uHusO7HqeZdsBcVtX60-6" vertex="1">
          <mxGeometry y="30" width="160" height="90" as="geometry" />
        </mxCell>
        <mxCell id="yS4Auysj0yb1mgpmarGh-9" value="Proveedor" style="swimlane;childLayout=stackLayout;horizontal=1;startSize=30;horizontalStack=0;rounded=1;fontSize=14;fontStyle=0;strokeWidth=2;resizeParent=0;resizeLast=1;shadow=0;dashed=0;align=center;" parent="1" vertex="1">
          <mxGeometry x="400" y="770" width="160" height="120" as="geometry" />
        </mxCell>
        <mxCell id="yS4Auysj0yb1mgpmarGh-10" value="+id_proveedor&#xa;+nombre_pr&#xa;+correo_pr&#xa;+direccion_pr&#xa;+telefono_pr" style="align=left;strokeColor=none;fillColor=none;spacingLeft=4;fontSize=12;verticalAlign=top;resizable=0;rotatable=0;part=1;" parent="yS4Auysj0yb1mgpmarGh-9" vertex="1">
          <mxGeometry y="30" width="160" height="90" as="geometry" />
        </mxCell>
        <mxCell id="yS4Auysj0yb1mgpmarGh-37" value="" style="endArrow=none;html=1;strokeWidth=2;exitX=0;exitY=0.25;exitDx=0;exitDy=0;entryX=1;entryY=0.25;entryDx=0;entryDy=0;" parent="yS4Auysj0yb1mgpmarGh-9" source="yS4Auysj0yb1mgpmarGh-10" target="yS4Auysj0yb1mgpmarGh-10" edge="1">
          <mxGeometry width="50" height="50" relative="1" as="geometry">
            <mxPoint x="150" y="-20" as="sourcePoint" />
            <mxPoint x="200" y="-70" as="targetPoint" />
          </mxGeometry>
        </mxCell>
        <mxCell id="Gwi3XxGi01VuNW4erpNH-2" value="" style="edgeStyle=entityRelationEdgeStyle;fontSize=12;html=1;endArrow=ERoneToMany;strokeWidth=2;exitX=1;exitY=0.5;exitDx=0;exitDy=0;entryX=0;entryY=0.5;entryDx=0;entryDy=0;" edge="1" parent="1" source="yS4Auysj0yb1mgpmarGh-10" target="yS4Auysj0yb1mgpmarGh-14">
          <mxGeometry width="100" height="100" relative="1" as="geometry">
            <mxPoint x="620" y="840" as="sourcePoint" />
            <mxPoint x="720" y="740" as="targetPoint" />
          </mxGeometry>
        </mxCell>
        <mxCell id="Gwi3XxGi01VuNW4erpNH-9" value="" style="endArrow=none;html=1;rounded=0;strokeWidth=2;entryX=0;entryY=0.5;entryDx=0;entryDy=0;exitX=0.5;exitY=1;exitDx=0;exitDy=0;edgeStyle=orthogonalEdgeStyle;" edge="1" parent="1" source="yS4Auysj0yb1mgpmarGh-14" target="_uHusO7HqeZdsBcVtX60-7">
          <mxGeometry relative="1" as="geometry">
            <mxPoint x="720" y="1020" as="sourcePoint" />
            <mxPoint x="880" y="1020" as="targetPoint" />
          </mxGeometry>
        </mxCell>
        <mxCell id="Gwi3XxGi01VuNW4erpNH-10" value="" style="endArrow=none;html=1;rounded=0;strokeWidth=2;exitX=0.5;exitY=0;exitDx=0;exitDy=0;entryX=0.5;entryY=1;entryDx=0;entryDy=0;" edge="1" parent="1" source="yS4Auysj0yb1mgpmarGh-18" target="_uHusO7HqeZdsBcVtX60-4">
          <mxGeometry relative="1" as="geometry">
            <mxPoint x="1190" y="720" as="sourcePoint" />
            <mxPoint x="1350" y="720" as="targetPoint" />
          </mxGeometry>
        </mxCell>
        <mxCell id="Gwi3XxGi01VuNW4erpNH-11" value="" style="endArrow=none;html=1;rounded=0;strokeWidth=2;exitX=0.5;exitY=1;exitDx=0;exitDy=0;entryX=0.5;entryY=0;entryDx=0;entryDy=0;" edge="1" parent="1" source="yS4Auysj0yb1mgpmarGh-16" target="_uHusO7HqeZdsBcVtX60-3">
          <mxGeometry relative="1" as="geometry">
            <mxPoint x="1200" y="510" as="sourcePoint" />
            <mxPoint x="1360" y="510" as="targetPoint" />
          </mxGeometry>
        </mxCell>
      </root>
    </mxGraphModel>
  </diagram>
</mxfile>
